<?xml version="1.0"?>
<mxfile host="www.draw.io" modified="2020-07-20T09:08:47.940Z" agent="5.0 (X11)" etag="edvplUSG449IwiwjSauc" version="13.4.8" pages="3">
  <diagram name="Candidate-search" id="b33cb84f-bf7a-9ccf-f142-242d16432e5d">
    <mxGraphModel dx="2" dy="1" grid="1" gridSize="10" guides="1" tooltips="1" connect="1" arrows="1" fold="1" page="1" pageScale="1.5" pageWidth="1169" pageHeight="826" background="#ffffff" math="1" shadow="0">
      <root>
        <mxCell id="0" style=";html=1;"/>
        <mxCell id="1" style=";html=1;" parent="0"/>
        <mxCell id="QKl0FdShNXnXOFpWQBXe-34" value="" style="ellipse;whiteSpace=wrap;html=1;aspect=fixed;fillColor=none;" parent="1" vertex="1">
          <mxGeometry x="850" y="300" width="260" height="260" as="geometry"/>
        </mxCell>
        <mxCell id="QKl0FdShNXnXOFpWQBXe-28" value="" style="ellipse;whiteSpace=wrap;html=1;aspect=fixed;fillColor=none;" parent="1" vertex="1">
          <mxGeometry x="160" y="150" width="260" height="260" as="geometry"/>
        </mxCell>
        <mxCell id="QKl0FdShNXnXOFpWQBXe-10" value="A&lt;br&gt;&lt;div&gt;&lt;br&gt;&lt;/div&gt;&lt;div&gt;&lt;br&gt;&lt;/div&gt;" style="whiteSpace=wrap;html=1;rounded=0;shadow=0;strokeWidth=1;fillColor=#6d8764;fontSize=24;align=right;strokeColor=#3A5431;" parent="1" vertex="1">
          <mxGeometry x="280" y="270" width="20" height="20" as="geometry"/>
        </mxCell>
        <mxCell id="QKl0FdShNXnXOFpWQBXe-11" value="B&lt;br&gt;&lt;br&gt;&lt;div&gt;&lt;br&gt;&lt;/div&gt;" style="whiteSpace=wrap;html=1;rounded=0;shadow=0;strokeWidth=1;fillColor=#e51400;fontSize=24;align=right;strokeColor=#B20000;" parent="1" vertex="1">
          <mxGeometry x="970" y="420" width="20" height="20" as="geometry"/>
        </mxCell>
        <mxCell id="QKl0FdShNXnXOFpWQBXe-12" value="" style="endArrow=none;html=1;strokeWidth=3;fillColor=#76608a;strokeColor=#B3B3B3;" parent="1" edge="1">
          <mxGeometry width="50" height="50" relative="1" as="geometry">
            <mxPoint x="740" y="470" as="sourcePoint"/>
            <mxPoint x="880" y="290" as="targetPoint"/>
          </mxGeometry>
        </mxCell>
        <mxCell id="QKl0FdShNXnXOFpWQBXe-13" value="" style="endArrow=none;html=1;strokeWidth=3;fillColor=#76608a;strokeColor=#B3B3B3;" parent="1" edge="1">
          <mxGeometry width="50" height="50" relative="1" as="geometry">
            <mxPoint x="740" y="470" as="sourcePoint"/>
            <mxPoint x="430" y="550" as="targetPoint"/>
          </mxGeometry>
        </mxCell>
        <mxCell id="QKl0FdShNXnXOFpWQBXe-14" value="" style="endArrow=none;html=1;strokeWidth=3;fillColor=#76608a;strokeColor=#B3B3B3;" parent="1" edge="1">
          <mxGeometry width="50" height="50" relative="1" as="geometry">
            <mxPoint x="880" y="290" as="sourcePoint"/>
            <mxPoint x="1160" y="470" as="targetPoint"/>
          </mxGeometry>
        </mxCell>
        <mxCell id="QKl0FdShNXnXOFpWQBXe-15" value="" style="endArrow=none;html=1;strokeWidth=3;fillColor=#76608a;strokeColor=#B3B3B3;" parent="1" edge="1">
          <mxGeometry width="50" height="50" relative="1" as="geometry">
            <mxPoint x="610" y="390" as="sourcePoint"/>
            <mxPoint x="880" y="290" as="targetPoint"/>
          </mxGeometry>
        </mxCell>
        <mxCell id="QKl0FdShNXnXOFpWQBXe-16" value="" style="endArrow=none;html=1;strokeWidth=3;fillColor=#76608a;strokeColor=#B3B3B3;" parent="1" edge="1">
          <mxGeometry width="50" height="50" relative="1" as="geometry">
            <mxPoint x="430" y="550" as="sourcePoint"/>
            <mxPoint x="820" y="200" as="targetPoint"/>
          </mxGeometry>
        </mxCell>
        <mxCell id="QKl0FdShNXnXOFpWQBXe-17" value="" style="endArrow=none;html=1;strokeWidth=3;fillColor=#76608a;strokeColor=#B3B3B3;" parent="1" edge="1">
          <mxGeometry width="50" height="50" relative="1" as="geometry">
            <mxPoint x="430" y="550" as="sourcePoint"/>
            <mxPoint x="400" y="220" as="targetPoint"/>
          </mxGeometry>
        </mxCell>
        <mxCell id="QKl0FdShNXnXOFpWQBXe-18" value="" style="endArrow=none;html=1;strokeWidth=3;fillColor=#76608a;strokeColor=#B3B3B3;" parent="1" edge="1">
          <mxGeometry width="50" height="50" relative="1" as="geometry">
            <mxPoint x="820" y="200" as="sourcePoint"/>
            <mxPoint x="480" y="240" as="targetPoint"/>
          </mxGeometry>
        </mxCell>
        <mxCell id="QKl0FdShNXnXOFpWQBXe-19" value="" style="endArrow=none;html=1;strokeWidth=3;fillColor=#76608a;strokeColor=#B3B3B3;" parent="1" edge="1">
          <mxGeometry width="50" height="50" relative="1" as="geometry">
            <mxPoint x="480" y="240" as="sourcePoint"/>
            <mxPoint x="160" y="160" as="targetPoint"/>
          </mxGeometry>
        </mxCell>
        <mxCell id="QKl0FdShNXnXOFpWQBXe-21" value="" style="ellipse;whiteSpace=wrap;html=1;aspect=fixed;fillColor=#d5e8d4;strokeColor=#82b366;rotation=5;" parent="1" vertex="1">
          <mxGeometry x="390.47" y="260" width="20.42" height="20.42" as="geometry"/>
        </mxCell>
        <mxCell id="QKl0FdShNXnXOFpWQBXe-33" value="" style="ellipse;whiteSpace=wrap;html=1;aspect=fixed;fillColor=#d5e8d4;strokeColor=#82b366;rotation=5;" parent="1" vertex="1">
          <mxGeometry x="310" y="190" width="20.42" height="20.42" as="geometry"/>
        </mxCell>
        <mxCell id="QKl0FdShNXnXOFpWQBXe-35" value="" style="ellipse;whiteSpace=wrap;html=1;aspect=fixed;fillColor=#f8cecc;strokeColor=#b85450;" parent="1" vertex="1">
          <mxGeometry x="1010" y="370" width="20" height="20" as="geometry"/>
        </mxCell>
        <mxCell id="QKl0FdShNXnXOFpWQBXe-36" value="&lt;font style=&quot;font-size: 22px&quot;&gt;M&lt;/font&gt;" style="text;html=1;strokeColor=none;fillColor=none;align=center;verticalAlign=middle;whiteSpace=wrap;rounded=0;" parent="1" vertex="1">
          <mxGeometry x="790" y="160" width="40" height="20" as="geometry"/>
        </mxCell>
        <mxCell id="QKl0FdShNXnXOFpWQBXe-40" value="&lt;div&gt;&lt;font style=&quot;font-size: 16px&quot;&gt;`c_1^A`&lt;/font&gt;&lt;/div&gt;" style="text;html=1;strokeColor=none;fillColor=none;align=center;verticalAlign=middle;whiteSpace=wrap;rounded=0;fontColor=#000000;" parent="1" vertex="1">
          <mxGeometry x="290.42" y="160" width="40" height="20" as="geometry"/>
        </mxCell>
        <mxCell id="QKl0FdShNXnXOFpWQBXe-41" value="&lt;font style=&quot;font-size: 16px&quot;&gt;`c_2^A`&lt;/font&gt;" style="text;html=1;strokeColor=none;fillColor=none;align=center;verticalAlign=middle;whiteSpace=wrap;rounded=0;fontColor=#000000;" parent="1" vertex="1">
          <mxGeometry x="370.89" y="280.41999999999996" width="40" height="20" as="geometry"/>
        </mxCell>
        <mxCell id="QKl0FdShNXnXOFpWQBXe-44" style="edgeStyle=orthogonalEdgeStyle;rounded=0;orthogonalLoop=1;jettySize=auto;html=1;exitX=0.5;exitY=1;exitDx=0;exitDy=0;strokeColor=#B3B3B3;strokeWidth=3;fontColor=#000000;" parent="1" source="QKl0FdShNXnXOFpWQBXe-40" target="QKl0FdShNXnXOFpWQBXe-40" edge="1">
          <mxGeometry relative="1" as="geometry"/>
        </mxCell>
        <mxCell id="fOxBPszkPiY5v40vyihe-6" value="&lt;div&gt;&lt;font style=&quot;font-size: 16px&quot;&gt;`c_1^B`&lt;/font&gt;&lt;/div&gt;" style="text;html=1;strokeColor=none;fillColor=none;align=center;verticalAlign=middle;whiteSpace=wrap;rounded=0;fontColor=#000000;" parent="1" vertex="1">
          <mxGeometry x="1010" y="339.99999999999994" width="40" height="20" as="geometry"/>
        </mxCell>
      </root>
    </mxGraphModel>
  </diagram>
</mxfile>
